# xmcd CD database file
#
# Track frame offsets:
#	150
#	25207
#	49704
#	66926
#	96118
#	126590
#	144754
#	163244
#	192553
#	211948
#	235240
#	266117
#	283816
#
# Disc length: 3972 seconds
#
# Revision: 13
# Processed by: cddbd v1.5.2PL0 Copyright (c) Steve Scherf et al.
# Submitted via: CDex 1.79
#
DISCID=ca0f820d
DTITLE=METALLICA - Metallica
DYEAR=1991
DGENRE=Metal
TTITLE0=Enter Sandman
TTITLE1=Sad But True
TTITLE2=Holier Than Thou
TTITLE3=The Unforgiven
TTITLE4=Wherever I May Roam
TTITLE5=Don't Tread On Me
TTITLE6=Through The Never
TTITLE7=Nothing Else Matters
TTITLE8=Of Wolf And Man
TTITLE9=The God That Failed
TTITLE10=My Friend Of Misery
TTITLE11=The Struggle Within
TTITLE12=So What
EXTD=YEAR: 1991
EXTT0=
EXTT1=
EXTT2=
EXTT3=
EXTT4=
EXTT5=
EXTT6=
EXTT7=
EXTT8=
EXTT9=
EXTT10=
EXTT11=
EXTT12=
PLAYORDER=
